<?xml version="1.0" encoding="UTF-8" ?>
<!DOCTYPE svg PUBLIC "-//W3C//DTD SVG 1.1//EN" "http://www.w3.org/Graphics/SVG/1.1/DTD/svg11.dtd">
<svg width="400pt" height="300pt" viewBox="0 0 400 300" version="1.1" xmlns="http://www.w3.org/2000/svg">
<g id="#825baeff">
<path fill="#825bae" opacity="1.00" d=" M 185.80 53.78 C 192.71 46.07 205.37 43.94 214.06 49.92 C 218.00 51.95 220.70 55.48 222.69 59.34 C 223.72 61.78 226.50 62.32 228.64 63.41 C 237.31 67.14 245.13 72.60 252.29 78.69 C 254.12 80.16 256.33 83.01 254.32 85.18 C 243.35 93.87 230.34 99.92 216.63 102.79 C 207.86 104.45 198.79 104.50 190.12 102.32 C 182.10 100.26 174.28 97.16 167.28 92.71 C 160.50 88.54 153.74 84.08 148.58 77.93 C 152.54 72.51 158.82 69.75 164.43 66.42 C 169.53 63.49 175.26 61.96 180.61 59.58 C 183.14 58.53 184.02 55.66 185.80 53.78 M 187.82 61.02 C 188.71 63.29 191.59 62.95 193.55 63.52 C 201.44 64.50 209.43 63.91 217.36 63.89 C 216.13 56.90 208.89 52.12 201.98 52.87 C 196.08 52.42 191.03 56.45 187.82 61.02 M 179.63 66.56 C 172.52 68.84 165.66 72.15 159.69 76.66 C 171.09 78.27 182.48 80.12 193.97 80.93 C 199.00 80.90 203.95 82.01 208.98 82.03 C 221.05 81.91 233.16 82.52 245.16 80.84 C 238.59 75.79 231.62 71.00 223.78 68.18 C 217.53 68.09 211.43 70.79 205.14 69.81 C 200.12 68.87 194.91 69.39 189.98 68.00 C 186.60 67.21 183.13 65.18 179.63 66.56 M 163.72 82.97 C 175.34 91.69 189.46 97.16 204.00 98.04 C 216.77 97.54 229.36 93.65 240.34 87.11 C 225.57 86.47 210.72 87.96 196.02 86.11 C 185.16 86.18 174.54 83.46 163.72 82.97 Z" />
<path fill="#825bae" opacity="1.00" d=" M 176.44 124.05 C 176.96 124.07 178.00 124.10 178.53 124.11 C 179.42 125.25 180.20 126.50 181.30 127.46 C 182.14 128.14 182.98 128.81 183.83 129.48 C 181.89 131.40 179.95 133.34 178.22 135.46 C 176.21 133.77 174.20 132.09 172.08 130.55 C 172.08 130.02 172.07 128.97 172.06 128.44 C 173.15 128.07 174.23 127.70 175.32 127.32 C 175.70 126.23 176.07 125.14 176.44 124.05 Z" />
<path fill="#825bae" opacity="1.00" d=" M 210.99 123.99 C 212.36 124.00 213.74 124.02 215.11 124.04 C 214.94 125.23 214.77 126.42 214.60 127.61 C 213.41 127.78 212.23 127.94 211.04 128.11 C 211.02 126.74 211.00 125.36 210.99 123.99 Z" />
<path fill="#825bae" opacity="1.00" d=" M 231.29 145.02 C 231.84 145.04 232.95 145.06 233.50 145.07 C 233.89 146.16 234.29 147.24 234.71 148.33 C 235.78 148.70 236.85 149.07 237.93 149.43 C 237.93 149.97 237.93 151.06 237.94 151.60 C 236.76 152.53 235.59 153.47 234.37 154.36 C 233.58 154.94 232.76 155.47 231.92 155.97 C 229.66 155.06 228.27 152.90 226.59 151.25 C 228.18 149.19 229.76 147.12 231.29 145.02 Z" />
<path fill="#825bae" opacity="1.00" d=" M 192.37 148.38 C 207.07 145.51 223.18 155.91 226.40 170.59 C 228.84 179.08 225.13 188.99 217.37 193.37 C 213.73 195.86 209.26 196.35 204.97 196.12 C 194.64 196.29 185.14 189.66 180.05 180.96 C 176.47 175.50 176.37 168.59 177.38 162.35 C 179.35 155.48 185.39 149.93 192.37 148.38 M 194.36 154.32 C 190.26 155.22 186.64 157.90 184.43 161.44 C 182.61 164.84 182.58 168.94 183.36 172.64 C 186.32 184.93 200.88 193.41 212.95 188.98 C 217.07 187.64 219.09 183.31 220.61 179.59 C 222.36 173.05 219.06 166.14 214.33 161.67 C 209.31 156.38 201.73 152.78 194.36 154.32 Z" />
<path fill="#825bae" opacity="1.00" d=" M 106.23 184.24 C 107.84 182.57 109.86 179.77 112.43 181.48 C 113.07 183.23 113.02 185.12 113.06 186.96 C 113.00 196.53 112.93 206.10 113.05 215.66 C 115.38 216.06 117.70 216.52 120.01 217.05 C 120.01 218.63 120.01 220.21 120.00 221.79 C 117.76 221.97 115.52 222.16 113.28 222.39 C 113.05 226.48 112.96 230.58 112.68 234.66 C 111.14 234.82 109.60 234.97 108.06 235.14 C 106.87 231.24 106.85 227.15 106.95 223.12 C 98.30 221.73 89.47 224.34 80.92 222.12 C 79.49 221.75 77.25 221.09 78.06 219.16 C 79.51 215.82 82.31 213.35 84.54 210.55 C 91.62 201.65 99.06 193.06 106.23 184.24 M 87.85 216.00 C 94.23 216.02 100.60 216.03 106.97 215.97 C 107.00 208.55 107.10 201.12 106.91 193.70 C 100.00 200.62 94.28 208.63 87.85 216.00 Z" />
<path fill="#825bae" opacity="1.00" d=" M 304.29 183.29 C 305.35 182.06 306.76 180.25 308.61 181.15 C 309.93 182.02 311.16 183.34 310.97 185.05 C 311.18 195.28 310.79 205.53 311.09 215.76 C 313.48 216.40 317.30 216.02 318.02 219.08 C 318.47 222.59 313.61 222.14 311.26 222.76 C 311.12 226.96 311.08 231.20 309.93 235.28 C 308.46 235.05 306.99 234.86 305.55 234.48 C 304.51 230.76 305.09 226.83 304.98 223.03 C 295.26 222.41 285.31 224.23 275.76 221.93 C 276.07 220.26 275.79 218.34 276.83 216.90 C 285.75 205.51 295.43 194.73 304.29 183.29 M 299.24 199.24 C 294.80 204.84 289.91 210.08 285.86 215.99 C 292.23 216.04 298.60 216.03 304.98 215.97 C 304.95 208.47 305.23 200.97 304.79 193.49 C 302.65 195.11 300.92 197.17 299.24 199.24 Z" />
<path fill="#825bae" opacity="1.00" d=" M 160.61 184.81 C 161.72 185.29 162.83 185.76 163.94 186.25 C 163.96 187.59 163.97 188.94 163.97 190.29 C 162.55 189.69 159.93 190.07 160.01 187.88 C 160.17 186.85 160.37 185.83 160.61 184.81 Z" />
<path fill="#825bae" opacity="1.00" d=" M 176.74 217.99 C 179.09 216.16 181.19 214.05 183.02 211.71 C 184.72 214.09 186.83 216.15 189.31 217.74 C 187.49 220.09 185.38 222.25 182.94 223.96 C 180.92 221.92 178.98 219.79 176.74 217.99 Z" />
<path fill="#825bae" opacity="1.00" d=" M 231.88 214.02 C 233.29 214.02 234.70 214.02 236.11 214.03 C 235.94 215.26 235.76 216.49 235.58 217.72 C 234.53 217.73 233.47 217.73 232.42 217.72 C 232.23 216.49 232.05 215.26 231.88 214.02 Z" />
<path fill="#825bae" opacity="1.00" d=" M 287.87 244.67 C 290.32 246.22 291.56 250.10 294.91 249.77 C 298.05 249.67 300.21 246.89 302.97 245.72 C 303.37 252.31 294.46 254.12 290.00 251.04 C 287.78 249.68 287.88 246.94 287.87 244.67 Z" />
<path fill="#825bae" opacity="1.00" d=" M 21.97 249.03 C 25.17 246.31 29.63 246.87 33.53 246.49 C 33.67 248.62 33.84 250.75 33.77 252.89 C 30.90 253.82 29.02 249.66 26.19 250.93 C 21.69 253.06 18.94 257.87 17.53 262.48 C 16.28 266.06 18.72 270.90 22.85 270.65 C 26.46 270.03 29.39 267.40 33.07 266.90 C 32.73 271.39 28.11 273.46 24.26 274.28 C 19.24 275.31 14.06 271.06 13.82 266.00 C 13.31 259.40 17.12 253.20 21.97 249.03 Z" />
<path fill="#825bae" opacity="1.00" d=" M 97.99 247.26 C 99.26 247.19 100.54 247.13 101.81 247.08 C 101.89 247.82 102.04 249.30 102.12 250.04 C 101.07 250.38 100.03 250.71 98.98 251.04 C 98.69 249.77 98.36 248.51 97.99 247.26 Z" />
<path fill="#825bae" opacity="1.00" d=" M 61.44 254.53 C 65.42 253.56 70.66 254.62 72.22 258.89 C 73.54 263.23 72.38 268.16 69.71 271.77 C 65.73 277.23 55.48 275.67 53.84 268.91 C 52.60 263.30 55.60 256.17 61.44 254.53 M 62.35 258.27 C 58.76 259.62 56.81 263.95 57.32 267.62 C 58.10 271.40 63.43 272.55 66.11 270.06 C 69.05 267.35 70.08 262.44 68.04 258.94 C 66.36 257.89 64.23 257.73 62.35 258.27 Z" />
<path fill="#825bae" opacity="1.00" d=" M 76.95 254.14 C 77.58 254.19 78.86 254.31 79.49 254.37 C 79.69 254.93 80.09 256.04 80.29 256.59 C 82.66 255.99 85.08 255.01 87.57 255.41 C 90.48 256.19 91.73 259.37 92.17 262.07 C 92.77 265.68 92.48 269.98 89.61 272.61 C 87.15 274.94 83.48 274.25 80.39 274.43 C 80.12 278.12 81.68 283.00 77.96 285.42 C 76.30 281.13 76.82 276.49 76.80 272.00 C 76.87 266.04 76.19 260.07 76.95 254.14 M 80.82 260.79 C 79.70 263.92 80.49 267.37 80.49 270.62 C 82.97 270.57 86.58 271.73 87.97 268.91 C 89.40 265.83 89.59 261.31 86.75 258.98 C 84.63 258.69 82.41 259.36 80.82 260.79 Z" />
<path fill="#825bae" opacity="1.00" d=" M 119.93 254.12 C 120.71 254.11 122.28 254.10 123.06 254.10 C 123.03 260.62 123.81 267.23 122.85 273.70 C 122.80 275.25 120.46 274.91 120.03 273.71 C 119.50 271.18 119.60 268.59 119.52 266.03 C 116.37 266.10 113.23 266.41 110.14 266.98 C 109.85 269.46 109.57 271.94 109.30 274.43 C 108.27 274.60 107.25 274.76 106.22 274.92 C 106.22 268.26 106.17 261.60 106.33 254.94 C 107.41 254.93 108.50 254.92 109.59 254.93 C 109.76 257.63 109.91 260.32 110.08 263.02 C 113.23 262.73 116.37 262.38 119.51 261.96 C 119.61 259.34 119.75 256.73 119.93 254.12 Z" />
<path fill="#825bae" opacity="1.00" d=" M 189.61 254.44 C 190.68 254.28 191.75 254.13 192.82 253.99 C 193.03 260.96 193.47 267.99 192.60 274.94 C 191.65 274.43 190.37 274.36 189.71 273.46 C 189.24 270.97 189.27 268.42 189.11 265.90 C 186.08 266.12 183.06 266.46 180.07 266.97 C 179.66 269.55 179.28 272.13 178.83 274.70 C 178.16 274.74 176.82 274.83 176.15 274.88 C 176.05 268.22 175.87 261.55 176.22 254.89 C 177.33 254.92 178.43 254.96 179.53 255.01 C 179.66 257.67 179.78 260.33 179.93 263.00 C 182.99 262.72 186.05 262.42 189.11 262.12 C 189.29 259.56 189.45 257.00 189.61 254.44 Z" />
<path fill="#825bae" opacity="1.00" d=" M 258.72 254.68 C 259.70 254.29 260.71 253.97 261.75 253.73 C 261.96 260.79 262.36 267.90 261.53 274.95 C 260.56 274.49 259.49 274.21 258.65 273.53 C 258.21 271.02 258.19 268.45 258.04 265.91 C 255.04 266.12 252.06 266.47 249.10 267.00 C 248.66 269.58 248.29 272.17 247.87 274.75 C 247.17 274.77 245.77 274.82 245.07 274.84 C 244.87 268.16 244.88 261.48 245.19 254.81 C 246.29 254.89 247.40 254.97 248.50 255.07 C 248.61 257.71 248.72 260.35 248.87 263.00 C 251.92 262.72 254.97 262.42 258.03 262.11 C 258.20 259.63 258.24 257.13 258.72 254.68 Z" />
<path fill="#825bae" opacity="1.00" d=" M 364.99 254.12 C 365.77 254.11 367.32 254.10 368.10 254.10 C 368.31 260.06 368.55 266.04 368.25 272.01 C 368.36 273.58 367.12 275.62 365.40 274.46 C 364.59 271.72 364.71 268.83 364.58 266.01 C 361.45 266.10 358.33 266.41 355.24 266.97 C 354.89 269.64 354.53 272.31 354.08 274.96 C 353.40 274.87 352.02 274.68 351.33 274.58 C 351.25 268.06 351.29 261.54 351.36 255.03 C 352.47 254.96 353.59 254.91 354.70 254.88 C 354.88 257.59 355.01 260.31 355.16 263.02 C 358.29 262.73 361.43 262.39 364.56 261.99 C 364.67 259.36 364.81 256.74 364.99 254.12 Z" />
<path fill="#825bae" opacity="1.00" d=" M 380.44 254.44 C 384.11 253.82 388.90 254.64 390.54 258.44 C 392.22 262.97 391.01 268.32 388.00 272.02 C 383.87 277.31 373.82 275.43 372.24 268.78 C 371.15 263.03 374.36 255.80 380.44 254.44 M 379.08 259.11 C 376.65 261.18 375.27 264.65 375.86 267.82 C 376.87 271.86 383.02 272.59 385.33 269.28 C 388.05 266.29 387.74 262.00 386.70 258.39 C 384.19 258.34 381.25 257.36 379.08 259.11 Z" />
<path fill="#825bae" opacity="1.00" d=" M 35.92 254.94 C 40.89 254.57 45.87 254.56 50.83 255.05 C 50.81 255.79 50.77 257.25 50.75 257.99 C 48.88 258.17 46.99 258.33 45.11 258.48 C 45.16 263.92 45.47 269.37 45.04 274.80 C 44.25 274.82 42.69 274.86 41.90 274.88 C 41.61 269.50 41.65 264.12 41.43 258.74 C 39.64 258.48 37.85 258.23 36.06 257.96 C 36.03 257.21 35.96 255.70 35.92 254.94 Z" />
<path fill="#825bae" opacity="1.00" d=" M 98.10 256.29 C 98.78 254.98 100.37 254.77 101.00 256.25 C 101.52 262.10 100.85 267.99 100.87 273.86 C 100.12 273.85 98.64 273.83 97.89 273.82 C 97.43 268.00 97.05 262.06 98.10 256.29 Z" />
<path fill="#825bae" opacity="1.00" d=" M 128.08 255.04 C 128.82 254.99 130.30 254.90 131.05 254.85 C 131.42 257.30 131.81 259.74 132.28 262.17 C 135.11 261.13 136.66 258.56 138.42 256.31 C 139.44 254.57 141.54 255.60 143.08 255.74 C 140.92 258.13 139.05 260.77 137.72 263.72 C 140.18 266.66 142.67 269.81 143.18 273.75 C 142.44 273.80 140.95 273.91 140.21 273.96 C 137.98 270.71 136.52 265.81 132.01 265.29 C 131.76 268.30 131.55 271.32 131.19 274.32 C 130.42 274.25 128.90 274.12 128.14 274.05 C 127.98 267.71 127.77 261.37 128.08 255.04 Z" />
<path fill="#825bae" opacity="1.00" d=" M 143.87 256.13 C 144.64 255.13 146.26 254.79 147.03 255.96 C 149.66 259.48 151.34 263.58 153.67 267.29 C 155.50 263.28 157.39 259.29 159.32 255.33 C 160.06 255.30 161.53 255.25 162.27 255.22 C 162.13 259.78 159.51 263.65 157.68 267.68 C 154.95 273.12 152.70 278.78 150.65 284.51 C 150.00 284.51 148.71 284.52 148.06 284.52 C 147.54 280.05 150.38 276.29 151.18 272.07 C 149.51 266.42 145.33 261.85 143.87 256.13 Z" />
<path fill="#825bae" opacity="1.00" d=" M 199.33 258.36 C 201.82 254.62 207.22 254.19 211.00 256.05 C 213.42 257.20 213.83 261.08 211.61 262.64 C 208.14 265.20 203.93 266.53 200.35 268.94 C 202.10 270.02 203.84 271.47 206.02 271.43 C 209.20 271.44 211.93 269.58 214.76 268.37 C 214.54 269.80 215.15 271.73 213.58 272.56 C 209.51 275.36 203.43 275.66 199.48 272.50 C 195.88 268.71 196.60 262.44 199.33 258.36 M 204.50 258.49 C 201.68 259.00 201.24 262.19 200.47 264.42 C 203.76 263.36 207.07 262.07 209.77 259.83 C 209.23 257.59 206.20 258.35 204.50 258.49 Z" />
<path fill="#825bae" opacity="1.00" d=" M 228.83 258.86 C 229.82 253.13 239.02 253.25 240.96 258.21 C 241.01 260.95 240.16 263.68 240.67 266.42 C 240.81 268.35 241.58 270.55 240.32 272.29 C 238.31 275.21 234.16 275.14 231.15 274.09 C 229.66 273.85 228.97 272.52 228.88 271.15 C 231.41 268.90 236.89 273.39 237.87 268.93 C 237.32 266.25 233.89 265.86 231.94 264.46 C 234.42 262.92 238.37 262.10 237.78 258.36 C 234.79 258.32 231.81 258.66 228.83 258.86 Z" />
<path fill="#825bae" opacity="1.00" d=" M 272.41 255.44 C 275.43 254.37 278.46 255.68 281.20 256.89 C 280.48 262.40 280.56 267.99 282.30 273.30 C 282.78 275.81 279.91 274.15 278.57 274.09 C 275.00 273.84 270.85 276.16 267.82 273.21 C 262.74 267.98 265.16 257.43 272.41 255.44 M 270.66 260.66 C 268.58 263.30 268.20 267.28 269.79 270.24 C 271.60 272.60 275.13 271.78 277.24 270.31 C 278.00 266.24 277.19 262.06 277.05 257.96 C 274.85 258.60 272.22 258.76 270.66 260.66 Z" />
<path fill="#825bae" opacity="1.00" d=" M 285.75 254.70 C 286.47 254.89 287.90 255.27 288.62 255.46 C 288.91 260.00 289.04 264.56 289.20 269.11 C 293.14 265.68 296.09 261.36 299.33 257.32 C 300.36 255.86 302.09 255.33 303.67 254.73 C 304.27 261.42 304.31 268.15 303.83 274.86 C 303.09 274.84 301.61 274.80 300.86 274.79 C 300.67 270.79 300.60 266.78 300.15 262.80 C 296.80 266.56 293.77 270.70 289.71 273.75 C 288.56 274.69 286.99 274.55 285.62 274.79 C 285.51 268.10 284.80 261.36 285.75 254.70 Z" />
<path fill="#825bae" opacity="1.00" d=" M 313.27 255.05 C 317.41 254.65 321.57 254.61 325.71 255.01 C 325.80 259.02 325.49 263.02 325.68 267.03 C 325.78 270.24 328.94 272.64 328.40 275.96 C 328.42 277.50 327.04 278.44 326.03 279.36 C 325.43 277.65 324.90 275.92 324.39 274.19 C 320.10 273.90 315.81 273.93 311.53 274.23 C 311.34 275.55 311.16 276.88 310.97 278.22 C 310.20 278.24 308.65 278.27 307.88 278.29 C 307.83 276.25 307.56 274.18 307.95 272.17 C 309.38 269.63 311.79 267.56 312.31 264.58 C 312.94 261.44 313.00 258.23 313.27 255.05 M 316.54 258.35 C 316.07 262.40 315.28 266.40 314.06 270.30 C 316.71 270.31 319.37 270.30 322.02 270.28 C 322.10 266.29 322.09 262.29 321.87 258.30 C 320.09 258.32 318.31 258.34 316.54 258.35 Z" />
<path fill="#825bae" opacity="1.00" d=" M 332.87 258.93 C 334.99 254.91 340.40 254.17 344.30 255.75 C 346.97 256.70 348.08 260.84 345.60 262.61 C 342.15 265.18 337.95 266.51 334.36 268.89 C 336.06 270.05 337.76 271.67 339.99 271.44 C 343.05 271.15 345.85 269.78 348.73 268.79 C 348.73 269.56 348.75 271.10 348.76 271.87 C 344.52 274.75 338.48 276.16 334.02 272.98 C 329.70 269.69 330.47 263.16 332.87 258.93 M 337.10 259.04 C 335.32 260.20 335.13 262.54 334.40 264.36 C 338.05 263.38 341.51 261.69 344.24 259.05 C 341.92 258.65 339.28 257.63 337.10 259.04 Z" />
</g>
<g id="#2d203946">
<path fill="#2d2039" opacity="0.27" d=" M 190.12 102.32 C 198.79 104.50 207.86 104.45 216.63 102.79 C 221.59 116.84 226.36 130.96 231.29 145.02 C 229.76 147.12 228.18 149.19 226.59 151.25 C 228.27 152.90 229.66 155.06 231.92 155.97 C 232.76 155.47 233.58 154.94 234.37 154.36 C 236.38 159.82 238.48 165.26 240.28 170.79 C 244.95 185.53 250.72 199.89 255.42 214.62 C 257.75 221.53 260.07 228.46 262.96 235.17 C 255.04 238.77 246.25 237.65 237.87 238.80 C 231.74 239.49 225.54 238.58 219.43 239.51 C 211.33 240.63 203.14 239.83 195.00 240.09 C 187.63 240.61 180.36 238.96 173.00 239.05 C 165.48 239.37 158.02 238.19 150.55 237.58 C 147.32 237.35 144.16 236.57 141.18 235.31 C 145.04 221.94 150.67 209.20 155.04 196.01 C 158.12 188.93 160.65 181.65 163.13 174.36 C 164.25 170.19 165.16 165.93 167.07 162.03 C 171.12 153.32 172.58 143.40 178.22 135.46 C 179.95 133.34 181.89 131.40 183.83 129.48 C 182.98 128.81 182.14 128.14 181.30 127.46 C 182.35 123.60 183.31 119.72 183.80 115.75 C 183.90 113.97 184.93 112.53 186.00 111.20 C 187.29 108.20 188.56 105.19 190.12 102.32 M 210.99 123.99 C 211.00 125.36 211.02 126.74 211.04 128.11 C 212.23 127.94 213.41 127.78 214.60 127.61 C 214.77 126.42 214.94 125.23 215.11 124.04 C 213.74 124.02 212.36 124.00 210.99 123.99 M 192.37 148.38 C 185.39 149.93 179.35 155.48 177.38 162.35 C 176.37 168.59 176.47 175.50 180.05 180.96 C 185.14 189.66 194.64 196.29 204.97 196.12 C 209.26 196.35 213.73 195.86 217.37 193.37 C 225.13 188.99 228.84 179.08 226.40 170.59 C 223.18 155.91 207.07 145.51 192.37 148.38 M 160.61 184.81 C 160.37 185.83 160.17 186.85 160.01 187.88 C 159.93 190.07 162.55 189.69 163.97 190.29 C 163.97 188.94 163.96 187.59 163.94 186.25 C 162.83 185.76 161.72 185.29 160.61 184.81 M 176.74 217.99 C 178.98 219.79 180.92 221.92 182.94 223.96 C 185.38 222.25 187.49 220.09 189.31 217.74 C 186.83 216.15 184.72 214.09 183.02 211.71 C 181.19 214.05 179.09 216.16 176.74 217.99 M 231.88 214.02 C 232.05 215.26 232.23 216.49 232.42 217.72 C 233.47 217.73 234.53 217.73 235.58 217.72 C 235.76 216.49 235.94 215.26 236.11 214.03 C 234.70 214.02 233.29 214.02 231.88 214.02 M 177.57 234.21 C 179.46 235.49 181.68 236.12 183.97 236.07 C 191.28 236.12 198.56 237.95 205.87 236.82 C 211.88 235.93 217.95 236.03 224.00 236.04 C 224.00 235.52 224.01 234.48 224.01 233.96 C 215.97 234.33 208.00 233.31 200.00 232.81 C 192.52 233.30 185.07 234.08 177.57 234.21 Z" />
<path fill="#2d2039" opacity="0.27" d=" M 194.36 154.32 C 201.73 152.78 209.31 156.38 214.33 161.67 C 219.06 166.14 222.36 173.05 220.61 179.59 C 219.09 183.31 217.07 187.64 212.95 188.98 C 200.88 193.41 186.32 184.93 183.36 172.64 C 182.58 168.94 182.61 164.84 184.43 161.44 C 186.64 157.90 190.26 155.22 194.36 154.32 Z" />
</g>
<g id="#5e427a97">
<path fill="#5e427a" opacity="0.59" d=" M 177.57 234.21 C 185.07 234.08 192.52 233.30 200.00 232.81 C 208.00 233.31 215.97 234.33 224.01 233.96 C 224.01 234.48 224.00 235.52 224.00 236.04 C 217.95 236.03 211.88 235.93 205.87 236.82 C 198.56 237.95 191.28 236.12 183.97 236.07 C 181.68 236.12 179.46 235.49 177.57 234.21 Z" />
</g>
</svg>
