<?xml version="1.0" encoding="UTF-8" ?>
<!DOCTYPE svg PUBLIC "-//W3C//DTD SVG 1.1//EN" "http://www.w3.org/Graphics/SVG/1.1/DTD/svg11.dtd">
<svg width="400pt" height="300pt" viewBox="0 0 400 300" version="1.1" xmlns="http://www.w3.org/2000/svg">
<g id="#825baeff">
<path fill="#825bae" opacity="1.00" d=" M 184.95 54.90 C 189.04 49.29 196.12 46.59 202.88 46.37 C 210.57 46.84 218.36 51.06 221.93 58.07 C 222.93 60.04 224.34 61.81 226.55 62.46 C 235.97 66.38 244.59 72.03 252.29 78.69 C 253.43 79.93 255.14 81.13 255.06 83.00 C 255.34 85.27 252.87 86.24 251.43 87.46 C 244.60 91.87 237.70 96.42 229.89 98.91 C 225.52 100.36 221.17 101.96 216.62 102.79 C 207.85 104.46 198.76 104.48 190.08 102.31 C 182.08 100.26 174.29 97.15 167.29 92.73 C 160.48 88.56 153.75 84.03 148.53 77.90 C 152.78 72.41 159.20 69.47 165.06 66.07 C 170.00 63.35 175.49 61.89 180.60 59.56 C 182.66 58.70 183.60 56.53 184.95 54.90 M 187.35 61.32 C 191.12 63.64 195.65 63.97 199.97 64.02 C 205.78 64.04 211.61 64.07 217.42 63.86 C 216.03 56.92 208.94 52.11 201.99 52.87 C 195.77 52.31 191.00 56.91 187.35 61.32 M 179.63 66.56 C 172.49 68.79 165.71 72.23 159.67 76.63 C 187.89 81.09 216.65 83.92 245.17 80.84 C 238.58 75.82 231.64 70.96 223.77 68.20 C 217.53 68.10 211.44 70.75 205.15 69.80 C 199.86 68.91 194.37 69.37 189.21 67.77 C 186.10 66.98 182.86 65.31 179.63 66.56 M 163.69 82.96 C 175.34 91.66 189.44 97.19 204.00 98.03 C 216.79 97.57 229.37 93.62 240.38 87.11 C 224.93 86.58 209.41 87.83 194.03 86.04 C 183.83 85.92 173.85 83.41 163.69 82.96 Z" />
<path fill="#825bae" opacity="1.00" d=" M 176.96 123.70 C 178.60 124.74 180.09 125.99 181.47 127.36 C 182.22 128.08 182.97 128.80 183.72 129.52 C 181.83 131.45 179.93 133.39 178.23 135.49 C 175.82 133.57 173.13 131.78 171.70 128.96 C 174.16 127.96 175.96 126.16 176.96 123.70 Z" />
<path fill="#825bae" opacity="1.00" d=" M 210.95 123.95 C 212.45 124.00 213.95 124.07 215.46 124.13 C 215.08 126.57 213.56 128.09 211.13 128.46 C 211.06 126.96 211.00 125.45 210.95 123.95 Z" />
<path fill="#825bae" opacity="1.00" d=" M 231.41 144.64 C 233.66 146.44 235.83 148.36 238.24 149.96 C 237.46 151.81 236.00 153.19 234.40 154.36 C 233.53 155.05 232.67 155.74 231.80 156.42 C 230.08 154.70 228.36 152.99 226.62 151.29 C 228.25 149.10 229.85 146.88 231.41 144.64 Z" />
<path fill="#825bae" opacity="1.00" d=" M 192.37 148.39 C 207.07 145.50 223.18 155.91 226.40 170.59 C 228.08 176.78 226.77 183.72 222.75 188.74 C 218.95 193.36 213.10 196.45 207.03 196.14 C 191.32 197.32 175.53 183.02 176.88 166.96 C 176.61 158.07 183.95 150.25 192.37 148.39 M 194.36 154.32 C 190.27 155.22 186.62 157.89 184.43 161.45 C 182.61 164.85 182.59 168.93 183.37 172.63 C 186.31 184.94 200.89 193.40 212.95 188.97 C 217.04 187.60 219.13 183.33 220.60 179.59 C 222.35 173.04 219.05 166.16 214.34 161.67 C 209.31 156.38 201.74 152.79 194.36 154.32 Z" />
<path fill="#825bae" opacity="1.00" d=" M 102.17 189.18 C 104.66 186.32 106.71 182.83 110.11 180.97 C 112.53 180.25 113.14 183.20 113.02 184.98 C 113.09 195.20 112.89 205.42 113.04 215.64 C 115.38 216.05 117.70 216.52 120.01 217.07 C 120.00 218.62 120.00 220.17 120.00 221.72 C 117.75 222.17 114.89 221.43 113.18 223.31 C 112.78 226.76 113.24 230.25 112.78 233.70 C 111.72 235.26 109.65 234.91 108.05 235.31 C 106.98 231.33 106.84 227.20 106.92 223.10 C 97.12 221.67 86.86 225.01 77.47 220.89 C 78.28 218.98 79.13 217.07 80.41 215.42 C 87.71 206.71 94.86 197.87 102.17 189.18 M 87.85 216.00 C 94.22 216.03 100.60 216.03 106.98 215.97 C 107.00 208.53 107.10 201.10 106.91 193.66 C 100.04 200.64 94.27 208.61 87.85 216.00 Z" />
<path fill="#825bae" opacity="1.00" d=" M 305.29 182.20 C 307.26 179.26 311.32 182.18 310.96 185.05 C 311.19 195.26 310.80 205.48 311.08 215.70 C 313.02 216.13 315.09 216.29 316.87 217.25 C 317.70 218.33 317.98 219.70 318.50 220.94 C 316.12 221.70 313.71 222.35 311.27 222.87 C 311.13 227.04 310.97 231.24 309.96 235.31 C 308.36 234.90 306.26 235.29 305.24 233.69 C 304.75 230.16 305.00 226.58 304.97 223.03 C 295.23 222.46 285.28 224.17 275.69 221.94 C 275.42 217.23 279.12 214.15 281.76 210.77 C 289.58 201.23 297.57 191.82 305.29 182.20 M 294.27 205.27 C 291.31 208.72 288.48 212.28 285.85 215.99 C 292.22 216.03 298.60 216.03 304.97 215.97 C 304.94 208.45 305.26 200.93 304.75 193.42 C 300.74 196.89 297.73 201.29 294.27 205.27 Z" />
<path fill="#825bae" opacity="1.00" d=" M 160.55 184.81 C 161.68 185.28 162.82 185.76 163.97 186.24 C 163.96 187.62 163.95 189.02 163.94 190.41 C 162.63 189.88 161.08 189.70 160.04 188.67 C 160.11 187.37 160.31 186.08 160.55 184.81 Z" />
<path fill="#825bae" opacity="1.00" d=" M 177.15 218.00 C 178.83 215.81 180.81 213.83 183.00 212.14 C 185.17 213.96 187.10 216.05 189.28 217.87 C 187.36 220.20 185.12 222.23 182.73 224.06 C 180.93 221.99 178.89 220.12 177.15 218.00 Z" />
<path fill="#825bae" opacity="1.00" d=" M 231.51 214.09 C 233.17 214.08 234.83 214.08 236.49 214.10 C 235.59 215.55 235.63 218.74 233.20 218.04 C 232.54 216.76 232.03 215.42 231.51 214.09 Z" />
<path fill="#825bae" opacity="1.00" d=" M 286.98 244.68 C 289.59 246.37 291.36 250.25 294.91 249.75 C 297.69 249.16 299.78 247.01 302.20 245.64 C 302.84 252.19 294.26 253.97 289.72 251.33 C 287.33 250.01 287.27 247.05 286.98 244.68 Z" />
<path fill="#825bae" opacity="1.00" d=" M 56.09 253.64 C 57.31 254.48 58.51 255.36 59.69 256.27 C 61.94 255.84 64.22 255.15 66.53 255.43 C 69.76 256.37 70.90 260.02 71.24 263.01 C 71.76 266.79 70.95 271.37 67.41 273.47 C 64.94 274.69 62.06 274.33 59.39 274.47 C 58.89 277.90 60.88 283.21 57.03 285.07 C 54.92 281.78 55.92 277.67 55.71 274.00 C 56.07 267.21 54.73 260.36 56.09 253.64 M 59.44 261.43 C 58.94 264.50 59.33 267.64 59.45 270.73 C 61.64 270.66 64.08 271.25 66.08 270.09 C 68.53 267.04 68.71 261.74 65.76 258.95 C 63.46 258.72 60.74 259.34 59.44 261.43 Z" />
<path fill="#825bae" opacity="1.00" d=" M 93.79 257.94 C 93.93 256.40 93.93 254.19 95.97 254.07 C 97.98 256.55 97.21 260.00 97.56 262.96 C 100.63 262.71 103.69 262.44 106.76 262.17 C 106.98 259.66 107.03 257.10 107.65 254.65 C 108.61 254.28 109.59 253.97 110.59 253.70 C 110.82 260.50 110.82 267.31 110.69 274.12 C 109.61 274.11 108.52 274.11 107.44 274.10 C 107.25 271.35 107.06 268.61 106.86 265.87 C 103.74 266.12 100.62 266.50 97.54 267.07 C 97.30 269.66 97.04 272.25 96.77 274.84 C 96.05 274.82 94.61 274.79 93.89 274.77 C 93.76 269.16 93.56 263.55 93.79 257.94 Z" />
<path fill="#825bae" opacity="1.00" d=" M 193.06 253.97 C 196.55 255.41 195.01 260.01 195.57 262.95 C 198.64 262.71 201.70 262.44 204.77 262.17 C 205.07 259.39 205.38 256.61 205.80 253.84 C 206.53 253.93 207.99 254.12 208.72 254.21 C 208.73 260.85 208.89 267.49 208.70 274.13 C 207.62 274.12 206.54 274.11 205.46 274.10 C 205.26 271.35 205.07 268.61 204.87 265.87 C 201.75 266.12 198.64 266.51 195.56 267.08 C 195.32 269.66 195.06 272.24 194.78 274.83 C 194.06 274.82 192.62 274.79 191.90 274.78 C 191.77 270.17 191.73 265.57 191.71 260.97 C 191.80 258.60 191.52 255.97 193.06 253.97 Z" />
<path fill="#825bae" opacity="1.00" d=" M 257.98 254.12 C 258.76 254.11 260.33 254.11 261.11 254.10 C 261.24 260.07 261.57 266.04 261.22 272.00 C 261.20 273.50 260.17 275.84 258.43 274.40 C 257.58 271.68 257.69 268.78 257.50 265.97 C 254.40 266.13 251.31 266.45 248.25 266.94 C 247.87 269.62 247.50 272.30 247.08 274.97 C 246.38 274.88 244.98 274.69 244.28 274.60 C 244.24 268.05 244.25 261.50 244.38 254.96 C 245.46 254.92 246.55 254.89 247.64 254.87 C 247.83 257.59 247.98 260.32 248.15 263.05 C 251.27 262.72 254.40 262.38 257.52 262.02 C 257.65 259.38 257.79 256.75 257.98 254.12 Z" />
<path fill="#825bae" opacity="1.00" d=" M 351.09 254.46 C 351.77 254.47 353.14 254.49 353.82 254.51 C 354.08 257.33 354.29 260.15 354.49 262.98 C 357.60 262.71 360.70 262.43 363.81 262.17 C 363.96 259.45 364.12 256.73 364.33 254.02 C 365.40 254.12 366.48 254.24 367.57 254.35 C 367.64 260.92 367.72 267.50 367.62 274.07 C 366.50 274.11 365.40 274.14 364.30 274.18 C 364.11 271.41 363.97 268.64 363.82 265.87 C 360.69 266.15 357.57 266.54 354.48 267.05 C 354.19 269.59 353.92 272.13 353.63 274.68 C 352.92 274.71 351.49 274.78 350.78 274.82 C 350.58 268.03 350.33 261.22 351.09 254.46 Z" />
<path fill="#825bae" opacity="1.00" d=" M 36.93 254.92 C 41.89 254.60 46.87 254.59 51.83 255.04 C 51.81 255.77 51.78 257.24 51.76 257.97 C 49.88 258.17 47.99 258.36 46.10 258.53 C 46.19 263.95 46.40 269.38 46.07 274.79 C 45.27 274.82 43.67 274.86 42.87 274.89 C 42.66 269.51 42.60 264.14 42.42 258.77 C 40.63 258.50 38.85 258.23 37.07 257.96 C 37.04 257.20 36.97 255.68 36.93 254.92 Z" />
<path fill="#825bae" opacity="1.00" d=" M 80.63 255.65 C 83.77 254.23 87.08 255.56 89.98 256.90 C 89.24 262.88 89.49 268.99 91.54 274.70 C 88.63 274.15 85.66 274.00 82.74 274.53 C 80.21 275.01 77.28 274.52 75.71 272.29 C 72.23 266.77 74.12 257.96 80.63 255.65 M 79.57 260.51 C 77.16 263.40 77.02 267.89 79.07 271.02 C 81.35 272.13 84.54 271.98 86.21 269.89 C 86.61 265.89 86.07 261.87 85.76 257.89 C 83.64 258.56 81.13 258.75 79.57 260.51 Z" />
<path fill="#825bae" opacity="1.00" d=" M 115.12 255.01 C 116.21 255.17 117.31 255.34 118.40 255.51 C 118.61 260.03 118.82 264.54 119.15 269.06 C 124.39 264.74 126.94 257.75 133.02 254.45 C 134.32 261.10 133.86 267.92 133.58 274.64 C 132.52 274.67 131.46 274.70 130.40 274.73 C 130.29 270.72 130.27 266.70 129.97 262.69 C 125.51 267.05 122.17 273.76 115.56 275.00 C 114.98 268.35 114.93 261.67 115.12 255.01 Z" />
<path fill="#825bae" opacity="1.00" d=" M 168.38 255.38 C 171.33 254.34 174.25 255.73 176.87 257.00 C 176.02 262.96 176.42 269.02 178.15 274.79 C 173.24 272.76 167.33 276.75 163.11 272.90 C 158.65 267.34 161.02 257.13 168.38 255.38 M 166.56 260.50 C 164.11 263.29 163.63 268.08 166.10 270.98 C 168.26 272.33 171.45 271.81 173.13 269.90 C 173.44 265.90 172.97 261.89 172.69 257.90 C 170.58 258.53 168.04 258.66 166.56 260.50 Z" />
<path fill="#825bae" opacity="1.00" d=" M 215.16 258.14 C 217.76 254.56 223.12 254.19 226.82 256.14 C 229.01 257.29 229.70 261.03 227.52 262.51 C 224.01 265.17 219.75 266.58 215.89 268.65 C 217.71 269.91 219.55 271.79 221.97 271.39 C 225.12 270.97 228.04 269.63 231.11 268.86 C 230.43 273.68 225.09 274.97 220.97 274.73 C 217.47 274.64 213.93 272.38 213.08 268.85 C 212.27 265.22 213.07 261.21 215.16 258.14 M 219.68 258.66 C 217.22 259.72 216.73 262.66 215.75 264.87 C 219.52 263.52 223.13 261.67 226.20 259.09 C 224.06 258.78 221.81 257.93 219.68 258.66 Z" />
<path fill="#825bae" opacity="1.00" d=" M 264.85 263.06 C 265.95 256.40 274.94 252.34 280.19 257.10 C 280.13 263.03 279.84 269.06 281.96 274.73 C 278.08 273.52 274.15 274.67 270.24 274.66 C 264.94 273.94 263.94 267.37 264.85 263.06 M 269.44 261.41 C 267.69 264.26 267.48 268.59 269.91 271.12 C 271.97 272.30 274.60 271.63 276.56 270.53 C 277.24 266.36 276.61 262.11 276.53 257.91 C 273.98 258.54 270.89 258.89 269.44 261.41 Z" />
<path fill="#825bae" opacity="1.00" d=" M 284.77 255.11 C 285.55 255.12 287.12 255.16 287.91 255.17 C 288.26 259.80 288.44 264.43 288.51 269.07 C 292.23 265.87 295.12 261.90 298.06 258.01 C 299.20 256.33 301.02 255.41 302.82 254.63 C 303.73 261.31 303.61 268.08 303.09 274.79 C 302.32 274.80 300.78 274.82 300.01 274.82 C 299.88 270.55 299.88 266.27 299.78 262.00 C 295.70 267.07 291.83 273.19 285.30 275.28 C 284.53 268.59 284.53 261.83 284.77 255.11 Z" />
<path fill="#825bae" opacity="1.00" d=" M 313.26 255.06 C 317.10 254.41 321.01 254.77 324.88 254.93 C 325.19 259.53 324.56 264.19 325.32 268.75 C 326.89 271.89 329.55 276.24 325.96 279.09 C 324.42 277.87 324.08 275.85 323.47 274.10 C 319.43 273.92 315.38 273.96 311.36 274.23 C 310.75 275.95 310.13 277.66 309.46 279.36 C 305.72 277.11 306.60 271.99 309.29 269.25 C 312.89 265.30 311.25 259.54 313.26 255.06 M 316.01 258.71 C 315.35 262.62 314.48 266.50 313.51 270.35 C 316.11 270.34 318.71 270.31 321.31 270.27 C 321.39 266.36 321.40 262.45 321.34 258.54 C 319.56 258.58 317.78 258.64 316.01 258.71 Z" />
<path fill="#825bae" opacity="1.00" d=" M 330.99 269.88 C 328.79 264.04 331.82 255.00 339.02 254.99 C 342.39 254.56 347.26 256.71 346.18 260.81 C 343.66 265.02 338.11 265.65 334.31 268.36 C 333.66 270.20 335.94 270.53 337.15 271.12 C 341.03 272.18 344.71 269.73 348.38 268.82 C 347.76 270.31 347.68 272.34 346.00 273.09 C 341.28 275.82 333.35 275.61 330.99 269.88 M 336.97 258.83 C 334.72 259.77 334.39 262.45 333.57 264.44 C 337.21 263.45 340.76 261.86 343.38 259.06 C 341.29 258.76 339.00 257.82 336.97 258.83 Z" />
<path fill="#825bae" opacity="1.00" d=" M 378.38 255.38 C 381.33 254.34 384.25 255.73 386.87 257.00 C 386.02 262.96 386.42 269.02 388.15 274.79 C 383.24 272.76 377.33 276.75 373.11 272.91 C 368.65 267.35 371.02 257.14 378.38 255.38 M 376.56 260.50 C 374.10 263.29 373.63 268.08 376.10 270.99 C 378.26 272.31 381.47 271.83 383.12 269.89 C 383.44 265.89 382.97 261.88 382.69 257.90 C 380.58 258.53 378.04 258.66 376.56 260.50 Z" />
</g>
<g id="#2c1f3946">
<path fill="#2c1f39" opacity="0.27" d=" M 190.08 102.31 C 198.76 104.48 207.85 104.46 216.62 102.79 C 221.71 116.68 226.01 130.86 231.41 144.64 C 229.85 146.88 228.25 149.10 226.62 151.29 C 228.36 152.99 230.08 154.70 231.80 156.42 C 232.67 155.74 233.53 155.05 234.40 154.36 C 238.98 166.13 242.55 178.26 246.91 190.11 C 249.95 198.48 252.95 206.88 255.67 215.36 C 257.56 221.36 260.18 227.14 261.57 233.30 C 248.52 231.15 235.26 229.57 222.00 229.99 C 207.67 230.03 193.33 230.03 179.00 229.95 C 173.08 229.89 167.19 230.54 161.33 231.30 C 155.25 232.09 149.10 232.16 143.04 233.06 C 142.59 226.62 146.21 221.05 148.14 215.15 C 151.97 204.45 155.93 193.79 160.05 183.20 C 163.08 175.82 164.31 167.85 167.66 160.60 C 171.33 152.30 172.82 142.95 178.23 135.49 C 179.93 133.39 181.83 131.45 183.72 129.52 C 182.97 128.80 182.22 128.08 181.47 127.36 C 182.57 123.03 183.05 118.56 184.37 114.29 C 186.00 110.17 188.38 106.40 190.08 102.31 M 210.95 123.95 C 211.00 125.45 211.06 126.96 211.13 128.46 C 213.56 128.09 215.08 126.57 215.46 124.13 C 213.95 124.07 212.45 124.00 210.95 123.95 M 192.37 148.39 C 183.95 150.25 176.61 158.07 176.88 166.96 C 175.53 183.02 191.32 197.32 207.03 196.14 C 213.10 196.45 218.95 193.36 222.75 188.74 C 226.77 183.72 228.08 176.78 226.40 170.59 C 223.18 155.91 207.07 145.50 192.37 148.39 M 160.55 184.81 C 160.31 186.08 160.11 187.37 160.04 188.67 C 161.08 189.70 162.63 189.88 163.94 190.41 C 163.95 189.02 163.96 187.62 163.97 186.24 C 162.82 185.76 161.68 185.28 160.55 184.81 M 177.15 218.00 C 178.89 220.12 180.93 221.99 182.73 224.06 C 185.12 222.23 187.36 220.20 189.28 217.87 C 187.10 216.05 185.17 213.96 183.00 212.14 C 180.81 213.83 178.83 215.81 177.15 218.00 M 231.51 214.09 C 232.03 215.42 232.54 216.76 233.20 218.04 C 235.63 218.74 235.59 215.55 236.49 214.10 C 234.83 214.08 233.17 214.08 231.51 214.09 Z" />
<path fill="#2c1f39" opacity="0.27" d=" M 194.36 154.32 C 201.74 152.79 209.31 156.38 214.34 161.67 C 219.05 166.16 222.35 173.04 220.60 179.59 C 219.13 183.33 217.04 187.60 212.95 188.97 C 200.89 193.40 186.31 184.94 183.37 172.63 C 182.59 168.93 182.61 164.85 184.43 161.45 C 186.62 157.89 190.27 155.22 194.36 154.32 Z" />
</g>
<g id="#342b3d46">
<path fill="#342b3d" opacity="0.27" d=" M 161.33 231.30 C 167.19 230.54 173.08 229.89 179.00 229.95 C 193.33 230.03 207.67 230.03 222.00 229.99 C 235.26 229.57 248.52 231.15 261.57 233.30 C 262.06 233.66 263.06 234.38 263.55 234.74 C 255.84 238.65 247.04 237.66 238.73 238.64 C 233.50 239.23 228.23 238.82 222.99 239.14 C 210.71 240.53 198.32 240.03 186.00 239.86 C 176.67 238.56 167.22 239.44 157.89 238.23 C 151.99 237.58 145.79 237.60 140.39 234.81 C 141.23 234.17 142.12 233.58 143.04 233.06 C 149.10 232.16 155.25 232.09 161.33 231.30 M 177.55 234.37 C 182.20 236.58 187.45 235.93 192.41 236.57 C 202.93 238.07 213.41 235.21 223.96 235.98 C 223.97 235.49 223.97 234.51 223.97 234.02 C 215.95 234.42 207.99 233.34 200.00 232.93 C 192.52 233.36 185.05 234.09 177.55 234.37 Z" />
</g>
<g id="#5f427b96">
<path fill="#5f427b" opacity="0.59" d=" M 177.55 234.37 C 185.05 234.09 192.52 233.36 200.00 232.93 C 207.99 233.34 215.95 234.42 223.97 234.02 C 223.97 234.51 223.97 235.49 223.96 235.98 C 213.41 235.21 202.93 238.07 192.41 236.57 C 187.45 235.93 182.20 236.58 177.55 234.37 Z" />
</g>
<g id="#825baefe">
<path fill="#825bae" opacity="1.00" d=" M 22.97 249.04 C 26.18 246.31 30.64 246.90 34.55 246.47 C 34.69 248.63 34.84 250.79 34.77 252.96 C 31.77 253.33 29.37 249.43 26.43 251.25 C 22.26 253.88 19.42 258.52 18.39 263.28 C 17.51 266.69 20.07 270.93 23.84 270.63 C 27.44 269.88 30.51 267.60 34.12 266.85 C 33.65 271.31 29.19 273.50 25.27 274.27 C 20.24 275.31 15.06 271.06 14.82 265.99 C 14.32 259.40 18.11 253.19 22.97 249.04 Z" />
<path fill="#825bae" opacity="1.00" d=" M 141.65 253.77 C 142.31 254.11 143.65 254.79 144.32 255.13 C 144.32 260.45 144.22 265.76 144.00 271.07 C 146.99 271.11 149.99 271.12 152.98 271.08 C 153.03 265.57 152.68 260.00 153.73 254.55 C 154.49 254.69 156.02 254.97 156.78 255.11 C 156.75 260.45 155.90 265.99 157.77 271.13 C 158.53 273.21 158.69 275.44 158.77 277.64 C 158.01 277.99 157.25 278.35 156.49 278.72 C 155.62 277.40 154.83 276.03 153.80 274.85 C 149.33 274.47 144.82 274.77 140.34 274.43 C 140.51 267.54 140.16 260.54 141.65 253.77 Z" />
</g>
</svg>
