<?xml version="1.0" encoding="UTF-8"?>
<!DOCTYPE svg PUBLIC "-//W3C//DTD SVG 1.1//EN" "http://www.w3.org/Graphics/SVG/1.1/DTD/svg11.dtd">
<!-- Creator: CorelDRAW -->
<svg xmlns="http://www.w3.org/2000/svg" xml:space="preserve" width="700mm" height="221mm" style="shape-rendering:geometricPrecision; text-rendering:geometricPrecision; image-rendering:optimizeQuality; fill-rule:evenodd; clip-rule:evenodd"
viewBox="0 0 700 221"
 xmlns:xlink="http://www.w3.org/1999/xlink">
 <defs>
  <style type="text/css">
   <![CDATA[
    .fil0 {fill:rgba(0,0,0,0.07)}
    .fil1 {fill:white}
    .fil2 {fill:white;fill-rule:nonzero}
   ]]>
  </style>
 </defs>
 <g id="Layer_x0020_1">
  <metadata id="CorelCorpID_0Corel-Layer"/>
  <rect class="fil0" y="8.4917e-005" width="221.729" height="221"/>
  <g id="_127670736">
   <path id="_127672896" class="fil1" d="M141.39 146.525c0.3575,-0.7654 0.4495,-1.6306 0.4495,-2.4691 0,-23.2698 -0.0364,-46.5395 -0.0364,-69.8105 0,-3.5902 -1.8473,-4.4807 -5.1926,-4.3712 -9.2193,0.3064 -18.9362,6.4702 -18.9362,16.6558l0 30.0717c0,0.6402 1.0595,1.4076 1.872,1.4076l8.1125 0c0,8.6822 -0.0247,17.3637 -0.0247,26.0466 0,3.8937 3.1957,7.079 7.1024,7.079l0.0006 0c3.0372,0 5.6428,-1.9233 6.6529,-4.6099z"/>
   <path id="_127670232" class="fil1" d="M79.8899 101.126c0,2.1052 5.5412,6.6269 7.6534,7.0981 0,11.944 -0.0179,23.8874 -0.0179,35.8314 0,0.1709 0.0055,0.3385 0.0179,0.5068l0 0.0417c0,0.9302 0.2326,1.6764 0.5915,2.3132 1.1082,2.4786 3.6074,4.2173 6.493,4.2173l0.0007 0c3.7556,0 6.8532,-2.9459 7.0865,-6.6338 0.3301,-2.3439 0.1071,-5.2507 0.1071,-7.7404 0,-12.4549 0,-26.9378 0,-28.5362 1.9461,-0.9862 7.7097,-4.7535 7.7097,-6.696l0 -26.2989 -0.0042 0 0 -2.0765c0,-1.6203 -1.3326,-2.9445 -2.9631,-2.9445l0 0c-1.6311,0 -2.9637,1.3248 -2.9637,2.9445l0 2.0765 -0.0007 0 0 16.1538c0,1.6203 -1.3333,2.9444 -2.9631,2.9444l0 0c-1.6311,0 -2.9638,-1.3248 -2.9638,-2.9444l0 -16.1538 -0.0007 0 0 -2.0765c0,-1.6203 -1.3333,-2.9445 -2.9631,-2.9445l0 0c-1.6311,0 -2.9644,1.3248 -2.9644,2.9445l0 2.0765 -0.0007 0 0 16.1538c0,1.6203 -1.3326,2.9444 -2.9631,2.9444l0 0c-1.6305,0 -2.9638,-1.3248 -2.9638,-2.9444l0 -16.1538 -0.0007 0 0 -2.0765c0,-1.6203 -1.3326,-2.9445 -2.9631,-2.9445l0 0c-1.6311,0 -2.9637,1.3248 -2.9637,2.9445l0 2.0765 0 16.1538 0 0.0759 0 9.6671z"/>
  </g>
  <path class="fil2" d="M338.512 116.965l-23.8433 0 0 23.8901 -13.862 0 0 -59.3565 41.8793 0 0 10.6024 -28.0173 0 0 14.2617 23.8433 0 0 10.6023zm7.8454 1.4331c0,-6.6369 1.8846,-12.0354 5.6537,-16.2096 3.7552,-4.174 9.004,-6.2612 15.7466,-6.2612 6.7566,0 12.0194,2.0872 15.7886,6.2612 3.7552,4.1742 5.6397,9.5727 5.6397,16.2096l0 0.8488c0,6.6647 -1.8845,12.0773 -5.6397,16.2375 -3.7692,4.1603 -9.0041,6.2334 -15.7048,6.2334 -6.7984,0 -12.0752,-2.0731 -15.8304,-6.2334 -3.7691,-4.1602 -5.6537,-9.5728 -5.6537,-16.2375l0 -0.8488zm13.8341 0.8488c0,3.7011 0.5724,6.5952 1.731,8.7101 1.1587,2.1009 3.1271,3.1584 5.919,3.1584 2.6943,0 4.6346,-1.0575 5.8072,-3.1862 1.1727,-2.115 1.759,-5.009 1.759,-8.6823l0 -0.8488c0,-3.5897 -0.5863,-6.4699 -1.759,-8.6265 -1.1726,-2.1566 -3.1409,-3.2419 -5.891,-3.2419 -2.7361,0 -4.6765,1.0853 -5.8352,3.2558 -1.1586,2.1845 -1.731,5.0507 -1.731,8.6126l0 0.8488zm33.2382 -0.8488c0,-6.6369 1.8846,-12.0354 5.6537,-16.2096 3.7552,-4.174 9.004,-6.2612 15.7467,-6.2612 6.7565,0 12.0193,2.0872 15.7885,6.2612 3.7552,4.1742 5.6397,9.5727 5.6397,16.2096l0 0.8488c0,6.6647 -1.8845,12.0773 -5.6397,16.2375 -3.7692,4.1603 -9.0041,6.2334 -15.7048,6.2334 -6.7984,0 -12.0752,-2.0731 -15.8304,-6.2334 -3.7691,-4.1602 -5.6537,-9.5728 -5.6537,-16.2375l0 -0.8488zm13.8341 0.8488c0,3.7011 0.5724,6.5952 1.731,8.7101 1.1587,2.1009 3.1271,3.1584 5.919,3.1584 2.6943,0 4.6346,-1.0575 5.8073,-3.1862 1.1726,-2.115 1.7589,-5.009 1.7589,-8.6823l0 -0.8488c0,-3.5897 -0.5863,-6.4699 -1.7589,-8.6265 -1.1727,-2.1566 -3.1409,-3.2419 -5.891,-3.2419 -2.7361,0 -4.6766,1.0853 -5.8353,3.2558 -1.1586,2.1845 -1.731,5.0507 -1.731,8.6126l0 0.8488zm33.2383 -0.3618c0,-6.8734 1.5076,-12.425 4.5229,-16.6409 3.0153,-4.2159 7.2591,-6.3169 12.7453,-6.3169 2.0381,0 3.8948,0.4731 5.542,1.4053 1.6472,0.9462 3.127,2.2819 4.4392,4.0212l0 -24.0849 13.8202 0 0 63.5862 -11.9915 0 -0.9772 -5.4124c-1.368,2.0314 -2.9454,3.5897 -4.7602,4.6611 -1.8148,1.0714 -3.8669,1.614 -6.1563,1.614 -5.4582,0 -9.6741,-2.0175 -12.6754,-6.0386 -3.0014,-4.0211 -4.509,-9.3362 -4.509,-15.9453l0 -0.8488zm13.8341 0.8488c0,3.5897 0.5165,6.3865 1.5635,8.3901 1.061,1.9896 2.8198,2.9914 5.3046,2.9914 1.4379,0 2.7222,-0.2643 3.825,-0.793 1.1029,-0.5288 2.0102,-1.308 2.7222,-2.3515l0 -17.8097c-0.712,-1.1688 -1.6193,-2.0731 -2.7082,-2.6993 -1.0889,-0.6261 -2.3453,-0.9322 -3.7552,-0.9322 -2.4569,0 -4.2297,1.127 -5.3186,3.381 -1.0888,2.2541 -1.6333,5.2455 -1.6333,8.9744l0 0.8488zm81.6646 13.2599c-1.4099,2.1706 -3.8808,4.1742 -7.3847,5.9968 -3.5039,1.8228 -8.0268,2.7272 -13.5968,2.7272 -7.1195,0 -12.9965,-2.2679 -17.6451,-6.8039 -4.6486,-4.5359 -6.966,-10.4075 -6.966,-17.615l0 -12.2302c0,-7.2073 2.1638,-13.079 6.4913,-17.6149 4.3415,-4.5359 9.9254,-6.8039 16.7797,-6.8039 6.8124,0 12.1729,1.6697 16.0677,5.009 3.8947,3.3532 5.891,7.6526 5.9748,12.926l-0.0838 0.2504 -7.6919 0c-0.2513,-3.4506 -1.5635,-6.303 -3.9506,-8.5292 -2.3871,-2.2261 -5.8212,-3.3393 -10.3162,-3.3393 -4.5649,0 -8.2223,1.6975 -11.0143,5.0925 -2.778,3.3949 -4.16,7.7083 -4.16,12.926l0 12.3136c0,5.2734 1.5495,9.6145 4.6626,13.0235 3.0991,3.4088 7.0496,5.1203 11.8518,5.1203 3.3783,0 6.1563,-0.4453 8.306,-1.3497 2.1498,-0.8905 3.6994,-1.9201 4.6207,-3.061l0 -13.4965 -13.0523 0 0 -6.3169 21.1071 0 0 21.7752zm40.5392 1.3357c-1.396,2.3654 -3.1828,4.1881 -5.3605,5.4682 -2.1778,1.2801 -4.7045,1.9201 -7.5662,1.9201 -4.8301,0 -8.5853,-1.5306 -11.2935,-4.6055 -2.6942,-3.075 -4.0483,-7.8613 -4.0483,-14.3591l0 -26.005 8.0548 0 0 26.0885c0,4.7029 0.6979,7.9448 2.0939,9.7118 1.3821,1.7671 3.5598,2.6437 6.5053,2.6437 2.8618,0 5.2209,-0.5844 7.0916,-1.7393 1.8706,-1.1548 3.2805,-2.7827 4.2298,-4.9115l0 -31.7932 8.0548 0 0 44.1069 -7.2312 0 -0.5305 -6.5256zm28.2127 6.5256l-8.0548 0 0 -44.1069 8.0548 0 0 44.1069zm0 -55.4049l-8.0548 0 0 -8.1953 8.0548 0 0 8.1953zm10.5536 34.1724c0,-7.0961 1.5216,-12.8285 4.5649,-17.1696 3.0432,-4.3551 7.301,-6.5257 12.7732,-6.5257 2.5965,0 4.8859,0.4731 6.8962,1.4331 2.0101,0.9462 3.7132,2.3376 5.1371,4.1464l0 -24.2379 8.0548 0 0 63.5862 -6.589 0 -0.9353 -5.4264c-1.4518,2.0732 -3.2247,3.6316 -5.3187,4.689 -2.1079,1.0713 -4.5369,1.6001 -7.3288,1.6001 -5.3885,0 -9.6184,-1.948 -12.6756,-5.8577 -3.0572,-3.8959 -4.5788,-9.0301 -4.5788,-15.3888l0 -0.8487zm8.0548 0.8487c0,4.4664 0.9214,8.0283 2.7501,10.6998 1.8148,2.6854 4.6626,4.0211 8.5015,4.0211 2.4011,0 4.4113,-0.5427 6.0585,-1.6279 1.6334,-1.0853 2.9596,-2.6158 4.0065,-4.5638l0 -20.5924c-1.0469,-1.8228 -2.3871,-3.2698 -4.0343,-4.3411 -1.6473,-1.0714 -3.6296,-1.614 -5.947,-1.614 -3.8807,0 -6.7286,1.5862 -8.5713,4.7724 -1.8426,3.1723 -2.764,7.3047 -2.764,12.3972l0 0.8487zm59.7478 21.2465c-6.1562,0 -11.0561,-2.0454 -14.6996,-6.136 -3.6435,-4.0907 -5.4582,-9.4058 -5.4582,-15.9175l0 -1.7949c0,-6.289 1.8705,-11.5067 5.6257,-15.6809 3.7412,-4.174 8.1805,-6.2612 13.3037,-6.2612 5.9748,0 10.4838,1.795 13.541,5.3847 3.0572,3.5898 4.5788,8.3761 4.5788,14.359l0 5.0091 -28.7013 0 -0.1256 0.2086c0.0837,4.2299 1.1586,7.7223 3.2247,10.4494 2.08,2.741 4.9836,4.1046 8.7108,4.1046 2.7362,0 5.1233,-0.3896 7.1894,-1.1549 2.0521,-0.7792 3.8249,-1.8505 5.3326,-3.2002l3.141 5.2038c-1.5775,1.5583 -3.6575,2.8523 -6.254,3.882 -2.5826,1.0296 -5.7235,1.5444 -9.409,1.5444zm-1.2284 -39.4736c-2.6942,0 -4.9976,1.1409 -6.9101,3.409 -1.8985,2.2679 -3.0712,5.1202 -3.5179,8.5429l0.0838 0.2088 20.4092 0 0 -1.0575c0,-3.1584 -0.8375,-5.802 -2.5267,-7.9169 -1.7031,-2.1288 -4.2019,-3.1863 -7.5383,-3.1863z"/>
 </g>
</svg>
